<svg xmlns="http://www.w3.org/2000/svg" width="519" height="67.667" viewBox="0 0 389.25 50.75">
    <clipPath id="a">
        <path transform="matrix(.24 0 0 .24 -11 -125)" d="M0 0h1758.333v1276.512H0z" fill-rule="evenodd" />
    </clipPath>
    <clipPath id="b">
        <path transform="matrix(.24 0 0 .24 -11 -125)" d="M0 0h1748.947v1242.097H0z" fill-rule="evenodd" />
    </clipPath>
    <clipPath id="c">
        <path transform="matrix(.24 0 0 .24 -11 -125)" d="M0 0h1748.947v1242.097H0z" fill-rule="evenodd" />
    </clipPath>
    <clipPath id="d">
        <path transform="matrix(.24 0 0 .24 -11 -125)" d="M467.558 0h1281.389v704.672H467.558z" fill-rule="evenodd" />
    </clipPath>
    <g clip-path="url(#d)">
        <path d="M101.214 2.138h5.678v37.006h21.25v4.977h-26.928V2.138z" fill="#09d3ac" />
    </g>
    <clipPath id="e">
        <path transform="matrix(.24 0 0 .24 -11 -125)" d="M594.405 0h1154.542v708.968H594.405z" fill-rule="evenodd" />
    </clipPath>
    <g clip-path="url(#e)">
        <path
            d="M137.043 35.96c0 1.58.585 2.751 1.639 3.513a5.857 5.857 0 0 0 3.863 1.288c1.854.007 3.61-.403 5.269-1.23a6.983 6.983 0 0 0 1.821-1.127 6.985 6.985 0 0 0 1.397-1.623c.383-.613.664-1.27.844-1.969.18-.7.25-1.41.21-2.132v-4.099a8.73 8.73 0 0 1-2.458.879 20.69 20.69 0 0 1-2.927.585l-3.102.469a11.839 11.839 0 0 0-4.215 1.17c-1.58.88-2.341 2.343-2.341 4.275m12.468-10.364c1.171-.175 1.932-.702 2.342-1.522.27-.637.387-1.3.351-1.991 0-1.757-.585-2.986-1.873-3.748a9.701 9.701 0 0 0-5.327-1.288c-2.693.059-4.625.761-5.737 2.225a7.016 7.016 0 0 0-1.23 3.63h-4.8c.06-3.747 1.289-6.44 3.63-7.846 2.342-1.522 5.093-2.225 8.195-2.225 3.134-.168 6.08.496 8.84 1.991 2.165 1.347 3.336 3.513 3.336 6.441v17.566c-.053.5.045.969.293 1.406.234.234.702.41 1.405.41.57-.018 1.136-.076 1.697-.176v3.806c-.615.178-1.24.315-1.873.41a13.33 13.33 0 0 1-1.697.117c-1.757 0-3.044-.644-3.864-1.99a7.188 7.188 0 0 1-.878-2.811 13.949 13.949 0 0 1-4.914 3.833 13.944 13.944 0 0 1-6.091 1.32 9.621 9.621 0 0 1-3.77-.586 9.623 9.623 0 0 1-3.255-1.991 8.575 8.575 0 0 1-1.991-2.944 8.577 8.577 0 0 1-.643-3.497c0-2.928.878-5.094 2.634-6.675 1.757-1.523 4.098-2.518 7.025-2.87l8.195-.995m-4.273-12.882z"
            fill="#09d3ac" />
    </g>
    <clipPath id="f">
        <path transform="matrix(.24 0 0 .24 -11 -125)" d="M721.61 0h1027.337v704.672H721.61z" fill-rule="evenodd" />
    </clipPath>
    <g clip-path="url(#f)">
        <path d="m168.157 13.497 8.196 24.945 8.546-24.945h5.62l-11.532 30.624h-5.503l-11.298-30.624h5.971z"
            fill="#09d3ac" />
    </g>
    <clipPath id="g">
        <path transform="matrix(.24 0 0 .24 -11 -125)" d="M852.027 0h896.92v708.968h-896.92z" fill-rule="evenodd" />
    </clipPath>
    <g clip-path="url(#g)">
        <path
            d="M198.872 35.96c0 1.58.585 2.751 1.639 3.513a5.857 5.857 0 0 0 3.863 1.288c1.854.007 3.61-.403 5.269-1.23a6.983 6.983 0 0 0 1.821-1.127 6.985 6.985 0 0 0 1.398-1.623c.382-.613.663-1.27.843-1.969.18-.7.25-1.41.211-2.132v-4.099a8.73 8.73 0 0 1-2.458.879 20.69 20.69 0 0 1-2.927.585l-3.103.469a11.839 11.839 0 0 0-4.215 1.17c-1.58.88-2.341 2.343-2.341 4.275m12.468-10.364c1.171-.175 1.932-.702 2.342-1.522.27-.637.387-1.3.351-1.991 0-1.757-.585-2.986-1.873-3.748a9.701 9.701 0 0 0-5.327-1.288c-2.693.059-4.624.761-5.737 2.225a7.016 7.016 0 0 0-1.229 3.63h-4.8c.058-3.747 1.288-6.44 3.63-7.846 2.34-1.522 5.092-2.225 8.195-2.225 3.133-.168 6.08.496 8.839 1.991 2.166 1.347 3.336 3.513 3.336 6.441v17.566c-.053.5.045.969.293 1.406.234.234.703.41 1.405.41.57-.018 1.136-.076 1.698-.176v3.806c-.616.178-1.24.315-1.874.41a13.33 13.33 0 0 1-1.697.117c-1.756 0-3.044-.644-3.864-1.99A7.188 7.188 0 0 1 214.15 40a13.949 13.949 0 0 1-4.914 3.833 13.944 13.944 0 0 1-6.09 1.32 9.621 9.621 0 0 1-3.77-.586 9.623 9.623 0 0 1-3.255-1.991 8.575 8.575 0 0 1-1.992-2.944 8.577 8.577 0 0 1-.643-3.497c0-2.928.879-5.094 2.635-6.675 1.756-1.523 4.097-2.518 7.024-2.87l8.195-.995m-4.273-12.882z"
            fill="#09d3ac" />
    </g>
    <clipPath id="h">
        <path transform="matrix(.24 0 0 .24 -11 -125)" d="M987.105 0h761.842v709.803H987.105z" fill-rule="evenodd" />
    </clipPath>
    <g clip-path="url(#h)">
        <path
            d="M231.29 30.597a11.28 11.28 0 0 0 1.757 5.797c1.756 2.752 5.151 4.157 9.893 4.157 2.107 0 4.097-.292 5.853-.937 3.337-1.17 5.035-3.279 5.035-6.323 0-2.343-.703-3.924-2.166-4.919a21.505 21.505 0 0 0-6.79-2.46l-5.62-1.287a25.582 25.582 0 0 1-7.903-2.752 8.743 8.743 0 0 1-1.756-1.504 8.745 8.745 0 0 1-1.302-1.91 8.747 8.747 0 0 1-.76-2.185 8.747 8.747 0 0 1-.162-2.306c0-3.748 1.288-6.851 3.922-9.252a15.545 15.545 0 0 1 5.21-2.89 15.543 15.543 0 0 1 5.912-.74 19.025 19.025 0 0 1 5.805.72c1.898.54 3.67 1.354 5.317 2.442 3.161 2.108 4.742 5.504 4.742 10.188h-5.444a10.366 10.366 0 0 0-1.757-5.153c-1.756-2.225-4.683-3.279-8.956-3.279-3.278 0-5.678.703-7.141 2.108a6.545 6.545 0 0 0-1.637 2.222 6.546 6.546 0 0 0-.588 2.697c0 2.05.878 3.513 2.576 4.509a37.644 37.644 0 0 0 7.61 2.283l5.97 1.347a17.856 17.856 0 0 1 6.498 2.635 9.915 9.915 0 0 1 3.1 3.764 9.918 9.918 0 0 1 .94 4.785c0 4.684-1.757 8.022-5.093 9.954a22.547 22.547 0 0 1-5.676 2.326 22.544 22.544 0 0 1-6.09.719 17.462 17.462 0 0 1-6.525-.823 17.465 17.465 0 0 1-5.768-3.159 13.425 13.425 0 0 1-3.387-4.896 13.429 13.429 0 0 1-.945-5.878h5.327M242.88.97z"
            fill="#09d3ac" />
    </g>
    <clipPath id="i">
        <path transform="matrix(.24 0 0 .24 -11 -125)" d="M1153.962 0h594.985v704.672h-594.985z" fill-rule="evenodd" />
    </clipPath>
    <g clip-path="url(#i)">
        <path
            d="M265.95 1.962h5.152v15.693c1.171-1.581 2.342-2.635 3.278-3.28a10.889 10.889 0 0 1 6.205-1.639c4.45 0 7.435 1.581 9.015 4.685.97 2.243 1.4 4.585 1.288 7.026v19.674h-5.268V24.798a10.631 10.631 0 0 0-.937-4.918c-.878-1.698-2.634-2.518-5.21-2.518-1.069.006-2.103.2-3.1.583a8.71 8.71 0 0 0-2.695 1.642c-1.756 1.464-2.576 4.216-2.576 8.315v16.22h-5.151V1.961z"
            fill="#09d3ac" />
    </g>
    <clipPath id="j">
        <path transform="matrix(.24 0 0 .24 -11 -125)" d="M1283.663 0h465.284v708.968h-465.284z" fill-rule="evenodd" />
    </clipPath>
    <g clip-path="url(#j)">
        <path
            d="M302.464 35.96c0 1.58.586 2.751 1.64 3.513a5.857 5.857 0 0 0 3.863 1.288c1.853.007 3.61-.403 5.268-1.23a6.983 6.983 0 0 0 1.822-1.127 6.985 6.985 0 0 0 1.397-1.623c.382-.613.664-1.27.844-1.969.18-.7.25-1.41.21-2.132v-4.099a8.73 8.73 0 0 1-2.458.879 20.69 20.69 0 0 1-2.927.585l-3.102.469a11.839 11.839 0 0 0-4.215 1.17c-1.58.88-2.342 2.343-2.342 4.275m12.469-10.364c1.17-.175 1.932-.702 2.342-1.522.27-.637.386-1.3.35-1.991 0-1.757-.585-2.986-1.872-3.748a9.701 9.701 0 0 0-5.327-1.288c-2.693.059-4.625.761-5.737 2.225a7.016 7.016 0 0 0-1.23 3.63h-4.8c.06-3.747 1.288-6.44 3.63-7.846 2.341-1.522 5.093-2.225 8.195-2.225 3.134-.168 6.08.496 8.84 1.991 2.165 1.347 3.336 3.513 3.336 6.441v17.566c-.053.5.044.969.293 1.406.234.234.702.41 1.405.41.57-.018 1.136-.076 1.697-.176v3.806c-.615.178-1.24.315-1.873.41a13.33 13.33 0 0 1-1.698.117c-1.756 0-3.044-.644-3.863-1.99a7.188 7.188 0 0 1-.878-2.811 13.949 13.949 0 0 1-4.914 3.833 13.944 13.944 0 0 1-6.091 1.32 9.621 9.621 0 0 1-3.77-.586 9.623 9.623 0 0 1-3.255-1.991 8.575 8.575 0 0 1-1.992-2.944 8.577 8.577 0 0 1-.642-3.497c0-2.928.878-5.094 2.634-6.675 1.756-1.523 4.098-2.518 7.025-2.87l8.195-.995m-4.273-12.882z"
            fill="#09d3ac" />
    </g>
    <clipPath id="k">
        <path transform="matrix(.24 0 0 .24 -11 -125)" d="M1425.88 0h323.067v704.672H1425.88z" fill-rule="evenodd" />
    </clipPath>
    <g clip-path="url(#k)">
        <path
            d="M331.211 13.497h4.859v5.27a11.471 11.471 0 0 1 2.927-3.747 7.524 7.524 0 0 1 2.721-1.724 7.523 7.523 0 0 1 3.191-.443c.234 0 .644 0 1.17.117v5.387a7.585 7.585 0 0 0-1.638-.175 7.22 7.22 0 0 0-3.28.562 7.223 7.223 0 0 0-2.691 1.956 8.594 8.594 0 0 0-1.597 2.732 8.596 8.596 0 0 0-.51 3.123v17.566h-5.152V13.497z"
            fill="#09d3ac" />
    </g>
    <clipPath id="l">
        <path transform="matrix(.24 0 0 .24 -11 -125)" d="M1506.028 0h242.919v704.672h-242.919z" fill-rule="evenodd" />
    </clipPath>
    <g clip-path="url(#l)">
        <path
            d="M350.447 2.138h4.917v24.359l13.23-13h6.556l-11.708 11.477 12.41 19.147h-6.673l-9.483-15.458-4.332 3.982V44.12h-4.917V2.138z"
            fill="#09d3ac" />
    </g>
    <clipPath id="m">
        <path transform="matrix(.24 0 0 .24 -11 -125)" d="M0 0h1748.947v1242.097H0z" fill-rule="evenodd" />
    </clipPath>
    <g clip-path="url(#m)">
        <path
            d="M10.717 44.04a.713.713 0 0 1-.404-.425.714.714 0 0 1 .03-.585.713.713 0 0 1 .445-.381.713.713 0 0 1 .583.06c10.785 5.296 20.832 6.243 30.179 2.864a.714.714 0 0 1 .581.009.714.714 0 0 1 .397.425.714.714 0 0 1-.032.58.714.714 0 0 1-.44.38c-9.75 3.525-20.209 2.54-31.34-2.927m22.027-26.244a1.103 1.103 0 0 1 .268-.81 1.102 1.102 0 0 1 .764-.382 1.102 1.102 0 0 1 .81.272 1.101 1.101 0 0 1 .378.765c.656 9.526-.522 19.453-3.53 29.776a1.102 1.102 0 0 1-.534.664 1.1 1.1 0 0 1-.847.093 1.101 1.101 0 0 1-.664-.534 1.102 1.102 0 0 1-.092-.846c2.936-10.08 4.085-19.744 3.447-28.998M29.388 1.8a1.102 1.102 0 0 1 .065-.85 1.103 1.103 0 0 1 .646-.555 1.102 1.102 0 0 1 .849.065 1.102 1.102 0 0 1 .555.646 67.294 67.294 0 0 1 2.583 10.788 1.102 1.102 0 0 1-.192.84 1.1 1.1 0 0 1-.734.45 1.102 1.102 0 0 1-.836-.208 1.102 1.102 0 0 1-.436-.743 65.08 65.08 0 0 0-2.5-10.433m3.987 11.568a1.1 1.1 0 0 1-.709-.472 1.103 1.103 0 0 1-.168-.835 1.102 1.102 0 0 1 .472-.709 1.101 1.101 0 0 1 .834-.167c6.894 1.352 6.894 4.608.214 7.4a1.101 1.101 0 0 1-.852.002 1.101 1.101 0 0 1-.604-.6 1.102 1.102 0 0 1-.003-.851 1.102 1.102 0 0 1 .6-.605c4.788-2 4.788-2.267.216-3.163m.667-1.426a1.102 1.102 0 0 1-.326.787 1.102 1.102 0 0 1-.786.326 1.102 1.102 0 0 1-.787-.326 1.1 1.1 0 0 1-.325-.787 1.102 1.102 0 0 1 .325-.786 1.102 1.102 0 0 1 .787-.326 1.102 1.102 0 0 1 .786.326 1.102 1.102 0 0 1 .326.786m-3.138-9.074a1.102 1.102 0 0 1-.63-.573 1.101 1.101 0 0 1-.039-.851 1.102 1.102 0 0 1 .574-.63 1.102 1.102 0 0 1 .85-.039c21.9 7.903 35.198 21.204 39.77 39.859a1.103 1.103 0 0 1-.131.84 1.104 1.104 0 0 1-.686.503 1.102 1.102 0 0 1-.841-.13 1.102 1.102 0 0 1-.504-.684C64.884 23.28 52.139 10.53 30.904 2.868m11.172 44.09a.714.714 0 0 1-.583.011.714.714 0 0 1-.41-.414.714.714 0 0 1 .015-.583.714.714 0 0 1 .432-.392c14.395-5.71 29.622-6.424 45.66-2.148.185.062.324.18.417.352a.718.718 0 0 1 .063.543.718.718 0 0 1-.324.439.717.717 0 0 1-.538.098C71.07 40.669 56.17 41.37 42.076 46.959"
            fill="#09d3ac" />
    </g>
</svg>