<svg enable-background="new 0 0 200 200" viewBox="0 0 200 200" xmlns="http://www.w3.org/2000/svg">
    <g transform="matrix(1,0,0,1,0,0)" clip-path="url(#h)"><path transform="matrix(5.2,0,0,6.2,-582.5,-676.4)" d="M 113.6 133.2 C 113.5 133.2 113.4 133.1 113.4 133 C 113.4 132.8 113.4 132.7 113.6 132.6 C 113.7 132.6 113.8 132.6 113.9 132.6 c 4.9 2.4 9.5 2.8 13.7 1.3 C 127.7 133.9 127.8 133.9 127.9 134 C 128 134.1 128.1 134.2 128.1 134.3 C 128 134.4 127.9 134.5 127.8 134.6 c -4.4 1.6 -9.2 1.2 -14.2 -1.3 m 10 -11.9 C 123.6 121.1 123.8 120.8 124.1 120.8 C 124.4 120.8 124.6 121 124.6 121.3 c 0.3 4.3 -0.2 8.8 -1.6 13.5 C 122.9 135 122.6 135.2 122.4 135.1 C 122.1 135 122 134.8 122 134.5 c 1.3 -4.6 1.9 -9 1.6 -13.2 m -1.5 -7.3 C 122 113.8 122.1 113.5 122.4 113.4 C 122.7 113.3 123 113.5 123 113.8 C 123.6 115.4 124 117 124.2 118.7 C 124.2 118.8 124.2 119 124 119.1 C 123.9 119.2 123.7 119.3 123.5 119.2 C 123.4 119.1 123.2 119 123.2 118.8 C 123 117.2 122.6 115.6 122.1 114.1 m 1.8 5.3 C 123.6 119.3 123.4 119 123.5 118.7 C 123.5 118.5 123.8 118.3 124.1 118.3 c 3.1 0.6 3.1 2.1 0.1 3.4 C 123.9 121.8 123.6 121.7 123.5 121.4 C 123.4 121.2 123.5 120.9 123.8 120.8 c 2.2 -0.9 2.2 -1 0.1 -1.4 m 0.3 -0.6 C 124.2 118.9 124.1 119 123.9 119.1 C 123.8 119.2 123.6 119.2 123.4 119.1 C 123.3 119 123.2 118.9 123.2 118.7 C 123.2 118.4 123.4 118.2 123.7 118.2 C 124 118.2 124.2 118.4 124.2 118.7 m -1.4 -4.1 C 122.5 114.5 122.4 114.2 122.5 113.9 C 122.6 113.6 122.8 113.5 123.1 113.6 c 9.9 3.6 16 9.6 18.1 18.1 C 141.2 132 141.1 132.2 140.8 132.3 C 140.5 132.4 140.3 132.2 140.2 131.9 c -2 -8.1 -7.8 -13.9 -17.4 -17.4 m 5.1 20 C 127.7 134.6 127.6 134.6 127.5 134.5 C 127.4 134.5 127.4 134.3 127.4 134.2 C 127.4 134.1 127.5 134 127.6 133.9 c 6.5 -2.6 13.4 -2.9 20.7 -1 C 148.5 133 148.6 133.2 148.5 133.4 C 148.5 133.5 148.3 133.7 148.2 133.6 c -7.1 -1.9 -13.9 -1.6 -20.3 1" fill="#09d3ac"/></g>
</svg>
